<svg width="55" height="55" viewBox="0 0 55 55" fill="none" xmlns="http://www.w3.org/2000/svg">
<path d="M48.125 38.958V20.6247C48.125 18.0934 46.073 16.0413 43.5417 16.0413H37.8125C36.5468 16.0413 35.5208 15.0153 35.5208 13.7497C35.5208 12.484 34.4949 11.458 33.2292 11.458H21.7708C20.5052 11.458 19.4792 12.484 19.4792 13.7497C19.4792 15.0153 18.4531 16.0413 17.1875 16.0413H11.4583C8.92703 16.0413 6.875 18.0934 6.875 20.6247V38.958C6.875 41.4894 8.92703 43.5413 11.4583 43.5413H43.5417C46.073 43.5413 48.125 41.4894 48.125 38.958Z" stroke="black" stroke-width="3"/>
<path d="M34.375 29.792C34.375 33.5891 31.2971 36.667 27.5 36.667C23.7029 36.667 20.625 33.5891 20.625 29.792C20.625 25.9949 23.7029 22.917 27.5 22.917C31.2971 22.917 34.375 25.9949 34.375 29.792Z" stroke="black" stroke-width="3"/>
</svg>
