<svg width="24" height="24" viewBox="0 0 24 24" fill="none" xmlns="http://www.w3.org/2000/svg">
<path d="M19.8822 4.88158L19.1463 4.14564C18.9383 3.93765 18.5543 3.96966 18.3143 4.2576L15.7541 6.80157C14.602 6.30562 13.3382 6.06562 12.0101 6.06562C8.05798 6.08156 4.6342 8.38553 2.98608 11.6977C2.89006 11.9057 2.89006 12.1617 2.98608 12.3376C3.75402 13.9057 4.90609 15.2017 6.34609 16.1776L4.2501 18.3056C4.0101 18.5456 3.97809 18.9296 4.13813 19.1376L4.87408 19.8735C5.08207 20.0815 5.46606 20.0495 5.70606 19.7616L19.754 5.71369C20.058 5.47383 20.0902 5.08959 19.8822 4.88158ZM12.8581 9.71347C12.5861 9.64945 12.2981 9.56949 12.0261 9.56949C10.6661 9.56949 9.57818 10.6575 9.57818 12.0174C9.57818 12.2894 9.64219 12.5774 9.72215 12.8494L8.65003 13.9054C8.33008 13.3455 8.15409 12.7214 8.15409 12.0175C8.15409 9.88948 9.86611 8.17746 11.9941 8.17746C12.6982 8.17746 13.3221 8.35344 13.8821 8.6734L12.8581 9.71347Z" fill="#666666" fill-opacity="0.8"/>
<path d="M21.0347 11.6979C20.4747 10.5779 19.7386 9.56994 18.8267 8.75391L15.8507 11.6979V12.0179C15.8507 14.1459 14.1387 15.8579 12.0107 15.8579H11.6907L9.80273 17.7459C10.5068 17.8898 11.2427 17.9859 11.9627 17.9859C15.9149 17.9859 19.3386 15.6819 20.9868 12.3537C21.1307 12.1297 21.1307 11.9058 21.0347 11.6977L21.0347 11.6979Z" fill="#666666" fill-opacity="0.8"/>
</svg>
