<svg width="40" height="40" viewBox="0 0 40 40" fill="none" xmlns="http://www.w3.org/2000/svg">
<g clip-path="url(#clip0_432_8373)">
<path d="M37.5 30V27.5H34.8736C34.7124 26.7176 34.4018 25.9736 33.9587 25.3089L35.8212 23.4464L34.0538 21.6789L32.1913 23.5414C31.5265 23.0983 30.7825 22.7876 30 22.6264V20H27.5V22.6264C26.7176 22.7876 25.9736 23.0982 25.3089 23.5413L23.4464 21.6788L21.6789 23.4462L23.5414 25.3087C23.0983 25.9735 22.7876 26.7175 22.6264 27.5H20V30H22.6264C22.7876 30.7824 23.0982 31.5264 23.5413 32.1911L21.6788 34.0536L23.4462 35.8211L25.3087 33.9586C25.9735 34.4017 26.7175 34.7124 27.5 34.8736V37.5H30V34.8736C30.7824 34.7124 31.5264 34.4018 32.1911 33.9587L34.0536 35.8212L35.8211 34.0538L33.9586 32.1913C34.4017 31.5265 34.7124 30.7825 34.8736 30H37.5ZM28.75 32.5C28.0083 32.5 27.2833 32.2801 26.6666 31.868C26.0499 31.456 25.5693 30.8703 25.2855 30.1851C25.0016 29.4998 24.9274 28.7458 25.0721 28.0184C25.2167 27.291 25.5739 26.6228 26.0983 26.0983C26.6228 25.5739 27.291 25.2167 28.0184 25.0721C28.7458 24.9274 29.4998 25.0016 30.1851 25.2855C30.8703 25.5693 31.456 26.0499 31.868 26.6666C32.2801 27.2833 32.5 28.0083 32.5 28.75C32.4989 29.7442 32.1035 30.6974 31.4004 31.4004C30.6974 32.1035 29.7442 32.4989 28.75 32.5Z" fill="#1B1C46"/>
<path d="M35 5H5C4.33716 5.00066 3.70166 5.26427 3.23296 5.73296C2.76427 6.20166 2.50066 6.83716 2.5 7.5V32.5C2.50076 33.1628 2.7644 33.7983 3.23307 34.2669C3.70175 34.7356 4.33719 34.9992 5 35H17.5V32.5H5V15H35V18.75H37.5V7.5C37.4992 6.83719 37.2356 6.20175 36.7669 5.73307C36.2983 5.2644 35.6628 5.00076 35 5ZM35 12.5H5V7.5H35V12.5Z" fill="#1B1C46"/>
<path d="M25 11.25C25.6904 11.25 26.25 10.6904 26.25 10C26.25 9.30964 25.6904 8.75 25 8.75C24.3096 8.75 23.75 9.30964 23.75 10C23.75 10.6904 24.3096 11.25 25 11.25Z" fill="#1B1C46"/>
<path d="M28.75 11.25C29.4404 11.25 30 10.6904 30 10C30 9.30964 29.4404 8.75 28.75 8.75C28.0596 8.75 27.5 9.30964 27.5 10C27.5 10.6904 28.0596 11.25 28.75 11.25Z" fill="#1B1C46"/>
<path d="M32.5 11.25C33.1904 11.25 33.75 10.6904 33.75 10C33.75 9.30964 33.1904 8.75 32.5 8.75C31.8096 8.75 31.25 9.30964 31.25 10C31.25 10.6904 31.8096 11.25 32.5 11.25Z" fill="#1B1C46"/>
</g>
<defs>
<clipPath id="clip0_432_8373">
<rect width="40" height="40" fill="white"/>
</clipPath>
</defs>
</svg>
