<svg width="100" height="100" viewBox="0 0 100 100" fill="none" xmlns="http://www.w3.org/2000/svg">
<rect width="100" height="100" rx="32" fill="#F85E9F"/>
<g clip-path="url(#clip0_441_8647)">
<path d="M69.6875 61.25V58.4375H66.7328C66.5515 57.5573 66.202 56.7203 65.7036 55.9725L67.7989 53.8772L65.8105 51.8887L63.7152 53.984C62.9673 53.4855 62.1303 53.136 61.25 52.9547V50H58.4375V52.9547C57.5573 53.136 56.7203 53.4855 55.9725 53.9839L53.8772 51.8886L51.8887 53.877L53.984 55.9723C53.4855 56.7202 53.136 57.5572 52.9547 58.4375H50V61.25H52.9547C53.136 62.1302 53.4855 62.9672 53.9839 63.715L51.8886 65.8103L53.877 67.7988L55.9723 65.7035C56.7202 66.202 57.5572 66.5515 58.4375 66.7328V69.6875H61.25V66.7328C62.1302 66.5515 62.9672 66.202 63.715 65.7036L65.8103 67.7989L67.7988 65.8105L65.7035 63.7152C66.202 62.9673 66.5515 62.1303 66.7328 61.25H69.6875ZM59.8438 64.0625C59.0094 64.0625 58.1937 63.8151 57.4999 63.3515C56.8062 62.888 56.2654 62.2291 55.9461 61.4582C55.6268 60.6873 55.5433 59.8391 55.7061 59.0207C55.8688 58.2024 56.2706 57.4506 56.8606 56.8606C57.4506 56.2706 58.2024 55.8688 59.0207 55.7061C59.8391 55.5433 60.6873 55.6268 61.4582 55.9461C62.2291 56.2654 62.888 56.8062 63.3515 57.4999C63.8151 58.1937 64.0625 59.0094 64.0625 59.8438C64.0613 60.9623 63.6164 62.0346 62.8255 62.8255C62.0346 63.6164 60.9623 64.0613 59.8438 64.0625Z" fill="white"/>
<path d="M66.875 33.125H33.125C32.3793 33.1257 31.6644 33.4223 31.1371 33.9496C30.6098 34.4769 30.3132 35.1918 30.3125 35.9375V64.0625C30.3134 64.8082 30.6099 65.523 31.1372 66.0503C31.6645 66.5776 32.3793 66.8741 33.125 66.875H47.1875V64.0625H33.125V44.375H66.875V48.5937H69.6875V35.9375C69.6866 35.1918 69.3901 34.477 68.8628 33.9497C68.3355 33.4224 67.6207 33.1259 66.875 33.125ZM66.875 41.5625H33.125V35.9375H66.875V41.5625Z" fill="white"/>
<path d="M55.625 40.1562C56.4017 40.1562 57.0312 39.5267 57.0312 38.75C57.0312 37.9733 56.4017 37.3438 55.625 37.3438C54.8483 37.3438 54.2188 37.9733 54.2188 38.75C54.2188 39.5267 54.8483 40.1562 55.625 40.1562Z" fill="white"/>
<path d="M59.8438 40.1562C60.6204 40.1562 61.25 39.5267 61.25 38.75C61.25 37.9733 60.6204 37.3438 59.8438 37.3438C59.0671 37.3438 58.4375 37.9733 58.4375 38.75C58.4375 39.5267 59.0671 40.1562 59.8438 40.1562Z" fill="white"/>
<path d="M64.0625 40.1562C64.8392 40.1562 65.4688 39.5267 65.4688 38.75C65.4688 37.9733 64.8392 37.3438 64.0625 37.3438C63.2858 37.3438 62.6562 37.9733 62.6562 38.75C62.6562 39.5267 63.2858 40.1562 64.0625 40.1562Z" fill="white"/>
</g>
<defs>
<clipPath id="clip0_441_8647">
<rect width="45" height="45" fill="white" transform="translate(27.5 27.5)"/>
</clipPath>
</defs>
</svg>
