<svg width="40" height="40" viewBox="0 0 40 40" fill="none" xmlns="http://www.w3.org/2000/svg">
<path d="M29.3971 0C30.0052 0 30.5925 0.221646 31.0489 0.623441L36.0268 5.00518C36.566 5.4798 36.875 6.16341 36.875 6.88174V36.25C36.875 38.3211 35.1961 40 33.125 40H6.875C4.80393 40 3.125 38.3211 3.125 36.25V3.75C3.125 1.67893 4.80393 0 6.875 0H29.3971Z" fill="url(#paint0_linear_432_8456)"/>
<path d="M29.3971 0C30.0052 0 30.5925 0.221646 31.0489 0.623441L36.0268 5.00518C36.566 5.4798 36.875 6.16341 36.875 6.88174V8.75H33.125C31.0539 8.75 29.375 7.07107 29.375 5V0H29.3971Z" fill="url(#paint1_linear_432_8456)"/>
<path d="M26.875 13.75C27.5654 13.75 28.125 14.3096 28.125 15C28.125 15.6904 27.5654 16.25 26.875 16.25H13.125C12.4346 16.25 11.875 15.6904 11.875 15C11.875 14.3096 12.4346 13.75 13.125 13.75H26.875Z" fill="url(#paint2_linear_432_8456)"/>
<path d="M26.875 18.75C27.5654 18.75 28.125 19.3096 28.125 20C28.125 20.6904 27.5654 21.25 26.875 21.25H13.125C12.4346 21.25 11.875 20.6904 11.875 20C11.875 19.3096 12.4346 18.75 13.125 18.75H26.875Z" fill="url(#paint3_linear_432_8456)"/>
<path d="M26.875 23.75C27.5654 23.75 28.125 24.3096 28.125 25C28.125 25.6904 27.5654 26.25 26.875 26.25H13.125C12.4346 26.25 11.875 25.6904 11.875 25C11.875 24.3096 12.4346 23.75 13.125 23.75H26.875Z" fill="url(#paint4_linear_432_8456)"/>
<defs>
<linearGradient id="paint0_linear_432_8456" x1="1690.63" y1="0" x2="1690.63" y2="4000" gradientUnits="userSpaceOnUse">
<stop stop-color="#4339E4"/>
<stop offset="1" stop-color="#D7D8E6"/>
</linearGradient>
<linearGradient id="paint1_linear_432_8456" x1="404.375" y1="0" x2="404.375" y2="862.952" gradientUnits="userSpaceOnUse">
<stop stop-color="#30299D"/>
</linearGradient>
<linearGradient id="paint2_linear_432_8456" x1="1636.88" y1="138.75" x2="11.875" y2="138.75" gradientUnits="userSpaceOnUse">
<stop stop-color="white"/>
</linearGradient>
<linearGradient id="paint3_linear_432_8456" x1="1636.88" y1="143.75" x2="11.875" y2="143.75" gradientUnits="userSpaceOnUse">
<stop stop-color="white"/>
</linearGradient>
<linearGradient id="paint4_linear_432_8456" x1="1636.88" y1="148.75" x2="11.875" y2="148.75" gradientUnits="userSpaceOnUse">
<stop stop-color="white"/>
</linearGradient>
</defs>
</svg>
