<svg width="24" height="24" viewBox="0 0 24 24" fill="none" xmlns="http://www.w3.org/2000/svg">
<path d="M20.841 11.5454C18.9261 8.20043 15.681 6 12 6C8.3189 6 5.07391 8.20043 3.15898 11.5454C3.1079 11.635 3.00577 11.8546 3.00028 12.0732C2.99424 12.2923 3.08593 12.5098 3.13261 12.5922C5.04423 15.963 8.30188 18.1837 12 18.1837C15.698 18.1837 18.9558 15.963 20.8674 12.5922C20.9141 12.5098 21.0058 12.2923 20.9997 12.0732C20.9942 11.8546 20.8921 11.635 20.841 11.5454ZM12 16.2155C9.74838 16.2155 7.923 14.3901 7.923 12.1386C7.923 9.88698 9.74838 8.06153 12 8.06153C14.2515 8.06153 16.077 9.88698 16.077 12.1386C16.077 14.3901 14.2515 16.2155 12 16.2155Z" fill="#727272"/>
<path d="M12.0001 9.43359C11.5558 9.43359 11.1423 9.55109 10.7727 9.74107L11.7689 11.9987L9.47453 11.192C9.36358 11.4874 9.29492 11.8043 9.29492 12.1388C9.29492 13.632 10.5069 14.844 12.0001 14.844C13.4933 14.844 14.7053 13.632 14.7053 12.1388C14.7053 10.6456 13.4933 9.43359 12.0001 9.43359Z" fill="#727272"/>
</svg>
