<svg width="32" height="32" viewBox="0 0 32 32" fill="none" xmlns="http://www.w3.org/2000/svg">
<path d="M16 0C12.8355 0 9.74207 0.938383 7.11088 2.69649C4.4797 4.45459 2.42894 6.95344 1.21793 9.87706C0.00693258 12.8007 -0.309921 16.0177 0.307443 19.1214C0.924806 22.2251 2.44866 25.0761 4.6863 27.3137C6.92394 29.5513 9.77486 31.0752 12.8786 31.6926C15.9823 32.3099 19.1993 31.9931 22.1229 30.7821C25.0466 29.5711 27.5454 27.5203 29.3035 24.8891C31.0616 22.2579 32 19.1645 32 16C32 13.8988 31.5861 11.8183 30.7821 9.87706C29.978 7.93585 28.7994 6.17203 27.3137 4.68629C25.828 3.20055 24.0641 2.022 22.1229 1.21793C20.1817 0.413852 18.1012 0 16 0ZM21.936 19.664C22.086 19.8127 22.205 19.9897 22.2862 20.1847C22.3675 20.3796 22.4093 20.5888 22.4093 20.8C22.4093 21.0112 22.3675 21.2203 22.2862 21.4153C22.205 21.6103 22.086 21.7873 21.936 21.936C21.7873 22.086 21.6103 22.205 21.4153 22.2862C21.2204 22.3674 21.0112 22.4093 20.8 22.4093C20.5888 22.4093 20.3797 22.3674 20.1847 22.2862C19.9897 22.205 19.8127 22.086 19.664 21.936L16 18.272L12.336 21.936C12.1873 22.086 12.0103 22.205 11.8153 22.2862C11.6204 22.3674 11.4112 22.4093 11.2 22.4093C10.9888 22.4093 10.7797 22.3674 10.5847 22.2862C10.3897 22.205 10.2127 22.086 10.064 21.936C9.91404 21.7873 9.79501 21.6103 9.71378 21.4153C9.63255 21.2203 9.59073 21.0112 9.59073 20.8C9.59073 20.5888 9.63255 20.3796 9.71378 20.1847C9.79501 19.9897 9.91404 19.8127 10.064 19.664L13.728 16L10.064 12.336C9.76272 12.0347 9.59346 11.6261 9.59346 11.2C9.59346 10.7739 9.76272 10.3653 10.064 10.064C10.3653 9.76271 10.7739 9.59345 11.2 9.59345C11.6261 9.59345 12.0347 9.76271 12.336 10.064L16 13.728L19.664 10.064C19.9653 9.76271 20.3739 9.59345 20.8 9.59345C21.2261 9.59345 21.6347 9.76271 21.936 10.064C22.2373 10.3653 22.4066 10.7739 22.4066 11.2C22.4066 11.6261 22.2373 12.0347 21.936 12.336L18.272 16L21.936 19.664Z" fill="#FF5B60"/>
</svg>
