<svg width="48" height="48" viewBox="0 0 48 48" fill="none" xmlns="http://www.w3.org/2000/svg">
<rect x="4" y="4" width="40" height="40" rx="20" fill="#FB8E91" fill-opacity="0.7"/>
<rect x="4" y="4" width="40" height="40" rx="20" stroke="#FFC5C5" stroke-width="8"/>
<g clip-path="url(#clip0_432_8294)">
<path d="M21.2357 22.3738C20.9214 22.0595 20.9214 21.55 21.2357 21.2357C21.55 20.9214 22.0595 20.9214 22.3738 21.2357L24.4561 23.3181L26.5364 21.2378C26.8507 20.9235 27.3602 20.9235 27.6745 21.2378C27.9888 21.5521 27.9888 22.0616 27.6745 22.3759L25.5942 24.4562L27.6737 26.5355C27.9879 26.8499 27.9879 27.3593 27.6737 27.6736C27.3593 27.9879 26.8498 27.9879 26.5355 27.6736L24.4561 25.5942L22.3761 27.6743C22.0618 27.9886 21.5523 27.9886 21.238 27.6743C20.9238 27.36 20.9238 26.8505 21.238 26.5362L23.3181 24.4562L21.2357 22.3738Z" fill="#DF0404"/>
<path fill-rule="evenodd" clip-rule="evenodd" d="M32.67 24.335C32.67 28.9383 28.9383 32.67 24.335 32.67C19.7317 32.67 16 28.9383 16 24.335C16 19.7317 19.7317 16 24.335 16C28.9383 16 32.67 19.7317 32.67 24.335ZM17.5206 24.335C17.5206 28.0985 20.5715 31.1494 24.335 31.1494C28.0985 31.1494 31.1494 28.0985 31.1494 24.335C31.1494 20.5715 28.0985 17.5206 24.335 17.5206C20.5715 17.5206 17.5206 20.5715 17.5206 24.335Z" fill="#DF0404"/>
</g>
<defs>
<clipPath id="clip0_432_8294">
<rect width="24" height="24" fill="white" transform="translate(12 12)"/>
</clipPath>
</defs>
</svg>
