<svg width="40" height="40" viewBox="0 0 40 40" fill="none" xmlns="http://www.w3.org/2000/svg">
<path d="M2.50004 6.22266H37.5C38.875 6.22266 40 7.34769 40 8.72269V31.2226C40 32.5976 38.875 33.7226 37.5 33.7226H2.50004C1.12503 33.7225 0 32.5976 0 31.2224V8.72269C0 7.34769 1.12503 6.22266 2.50004 6.22266Z" fill="#4339E4"/>
<path d="M23.3613 13.334C22.671 13.334 22.1113 13.8936 22.1113 14.584V14.584C22.1113 15.2744 22.671 15.834 23.3613 15.834H33.3613C34.0517 15.834 34.6114 15.2744 34.6114 14.584V14.584C34.6114 13.8936 34.0517 13.334 33.3613 13.334H23.3613ZM22.1113 19.5839C22.1113 20.2743 22.671 20.8339 23.3613 20.8339H33.3613C34.0517 20.8339 34.6114 20.2743 34.6114 19.5839V19.5839C34.6114 18.8936 34.0517 18.3339 33.3613 18.3339H23.3613C22.671 18.3339 22.1113 18.8936 22.1113 19.5839V19.5839ZM22.1113 24.584C22.1113 25.2744 22.671 25.834 23.3613 25.834H33.3613C34.0517 25.834 34.6114 25.2744 34.6114 24.584V24.584C34.6114 23.8936 34.0517 23.334 33.3613 23.334H23.3613C22.671 23.334 22.1113 23.8936 22.1113 24.584V24.584Z" fill="white"/>
<path d="M13.3614 13.3613C14.7364 13.3613 15.8615 14.4864 15.8615 15.8614C15.8615 17.2364 15.8615 18.6114 15.8615 18.9863C15.8615 19.6113 14.6114 20.8613 14.6114 20.8613V22.1113L18.3615 23.6113V25.8614H7.11133V23.4863L10.8614 21.9863V20.7363C10.8614 20.7363 9.61136 19.6113 9.61136 18.8613V15.8614C9.61136 14.4864 10.7364 13.3613 12.1114 13.3613H13.3614Z" fill="white"/>
</svg>
