<svg width="100" height="100" viewBox="0 0 100 100" fill="none" xmlns="http://www.w3.org/2000/svg">
<rect width="100" height="100" rx="32" fill="#FF5722"/>
<path d="M47.0579 34.3715H39.1413C36.8077 34.3715 35.6409 34.3715 34.7497 34.8257C33.9656 35.2251 33.3282 35.8626 32.9288 36.6466C32.4746 37.5379 32.4746 38.7046 32.4746 41.0382V61.0382C32.4746 63.3717 32.4746 64.5386 32.9288 65.4299C33.3282 66.2138 33.9656 66.8513 34.7497 67.2507C35.6409 67.7049 36.8077 67.7049 39.1413 67.7049H59.1413C61.4748 67.7049 62.6417 67.7049 63.5329 67.2507C64.3169 66.8513 64.9544 66.2138 65.3538 65.4299C65.8079 64.5386 65.8079 63.3717 65.8079 61.0382V52.0799M56.4329 37.4965L62.3254 43.3891M46.5636 47.3659L60.4142 33.5153C62.0413 31.8881 64.6796 31.8881 66.3067 33.5153C67.934 35.1425 67.934 37.7807 66.3067 39.4079L52.0109 53.7036C50.4242 55.2905 49.6309 56.0838 48.7271 56.7146C47.925 57.2749 47.0598 57.7386 46.1496 58.0969C45.124 58.5007 44.0242 58.7226 41.8245 59.1665L40.8079 59.3715L40.9068 58.6794C41.2566 56.2309 41.4315 55.0065 41.8294 53.8634C42.1824 52.849 42.6647 51.8846 43.2643 50.9936C43.94 49.9894 44.8146 49.1149 46.5636 47.3659Z" stroke="white" stroke-width="3" stroke-linecap="round" stroke-linejoin="round"/>
</svg>
