<?xml version="1.0" encoding="utf-8"?><!-- Uploaded to: SVG Repo, www.svgrepo.com, Generator: SVG Repo Mixer Tools -->
<svg width="800px" height="800px" viewBox="0 0 24 24" fill="none" xmlns="http://www.w3.org/2000/svg">
<path d="M4 4C4 3.44772 4.44772 3 5 3H14H14.5858C14.851 3 15.1054 3.10536 15.2929 3.29289L19.7071 7.70711C19.8946 7.89464 20 8.149 20 8.41421V20C20 20.5523 19.5523 21 19 21H5C4.44772 21 4 20.5523 4 20V4Z" stroke="#200E32" stroke-width="2" stroke-linecap="round"/>
<path d="M20 8H15V3" stroke="#200E32" stroke-width="2" stroke-linecap="round" stroke-linejoin="round"/>
<path d="M10.4995 11.9795C10.5483 11.5894 10.7245 11.2263 11.0007 10.9464C11.277 10.6666 11.6378 10.4858 12.0273 10.432C12.4168 10.3782 12.8131 10.4544 13.1549 10.6488C13.4967 10.8432 13.7647 11.1449 13.9175 11.5072C14.0703 11.8695 14.0993 12.2721 14 12.6525C13.9007 13.033 13.6786 13.37 13.3682 13.6114C13.2671 13.6899 13.1285 13.7569 12.974 13.8117C12.4557 13.9952 12 14.4312 12 14.981L12 15" stroke="#200E32" stroke-width="2" stroke-linecap="round"/>
<circle cx="12.0212" cy="17.2707" r="0.91897" fill="#200E32"/>
</svg>