<svg width="100" height="100" viewBox="0 0 100 100" fill="none" xmlns="http://www.w3.org/2000/svg">
<rect width="100" height="100" rx="32" fill="#FACD49"/>
<path d="M33.334 33.3333C33.334 32.1827 34.2667 31.25 35.4173 31.25H54.1673H55.3877C55.9402 31.25 56.4702 31.4695 56.8609 31.8602L66.0571 41.0565C66.4477 41.4472 66.6673 41.9771 66.6673 42.5296V66.6667C66.6673 67.8173 65.7346 68.75 64.584 68.75H35.4173C34.2667 68.75 33.334 67.8173 33.334 66.6667V33.3333Z" stroke="white" stroke-width="3" stroke-linecap="round"/>
<path d="M66.6667 41.6667H56.25V31.25" stroke="white" stroke-width="3" stroke-linecap="round" stroke-linejoin="round"/>
<path d="M46.873 49.9572C46.9747 49.1445 47.3418 48.388 47.9172 47.8049C48.4928 47.222 49.2445 46.8453 50.056 46.7333C50.8674 46.6212 51.693 46.7799 52.4051 47.1849C53.1172 47.5899 53.6755 48.2185 53.9939 48.9733C54.3122 49.728 54.3726 50.5668 54.1658 51.3593C53.9589 52.152 53.4962 52.8541 52.8495 53.357C52.6389 53.5205 52.3501 53.6601 52.0283 53.7743C50.9485 54.1566 49.9991 55.0649 49.9991 56.2103V56.2499" stroke="white" stroke-width="3" stroke-linecap="round"/>
<path d="M50.0434 62.8954C51.1008 62.8954 51.9579 62.0383 51.9579 60.9809C51.9579 59.9236 51.1008 59.0664 50.0434 59.0664C48.9861 59.0664 48.1289 59.9236 48.1289 60.9809C48.1289 62.0383 48.9861 62.8954 50.0434 62.8954Z" fill="white"/>
</svg>
