<svg width="32" height="32" viewBox="0 0 32 32" fill="none" xmlns="http://www.w3.org/2000/svg">
<path d="M16 0C7.17731 0 0 7.17769 0 16C0 24.8223 7.17731 32 16 32C24.8227 32 32 24.8223 32 16C32 7.17769 24.8227 0 16 0ZM23.5149 14.2188L16.0842 21.6494C15.2691 22.4646 13.9484 22.4647 13.1331 21.6494L8.83288 17.3492C8.01763 16.5343 8.01763 15.213 8.83288 14.3981C9.64813 13.5828 10.9688 13.5828 11.784 14.3981L14.6087 17.2224L20.5638 11.2676C21.3791 10.4523 22.6997 10.4523 23.5149 11.2676C24.3302 12.0826 24.3302 13.4039 23.5149 14.2188Z" fill="#20C374"/>
</svg>
