<svg width="40" height="40" viewBox="0 0 40 40" fill="none" xmlns="http://www.w3.org/2000/svg">
<path d="M30.1328 31.0537H32.4702C33.2713 31.0537 33.6718 31.0537 33.9681 30.9567C35.0131 30.6138 35.7167 29.4382 35.6562 28.136C35.6391 27.767 35.5125 27.3093 35.2592 26.3941C35.0483 25.6324 34.9429 25.2516 34.7984 24.931C34.2984 23.8218 33.406 23.0472 32.3741 22.8269C32.0758 22.7631 31.7425 22.7631 31.0758 22.7631L26.4481 22.8269M24.9556 19.4462C25.685 19.8006 26.504 19.9996 27.3693 19.9996C30.4219 19.9996 32.8964 17.5251 32.8964 14.4725C32.8964 11.42 30.4219 8.94546 27.3693 8.94546C26.871 8.94546 26.3881 9.01141 25.9288 9.13505M22.7634 12.6302C22.7634 16.7001 19.4639 19.9996 15.394 19.9996C11.324 19.9996 8.02456 16.7001 8.02456 12.6302C8.02456 8.56015 11.324 5.26074 15.394 5.26074C19.4639 5.26074 22.7634 8.56015 22.7634 12.6302ZM10.4521 23.6843H20.3359C21.2249 23.6843 21.6692 23.6843 22.0668 23.7692C23.4429 24.0631 24.6329 25.0957 25.2994 26.575C25.4921 27.0022 25.6327 27.51 25.9139 28.5257C26.2516 29.7459 26.4205 30.356 26.4433 30.8481C26.5239 32.5844 25.5855 34.152 24.1924 34.6089C23.7975 34.7385 23.2634 34.7385 22.1952 34.7385H8.59282C7.52462 34.7385 6.99054 34.7385 6.59565 34.6089C5.2024 34.152 4.26409 32.5844 4.34466 30.8481C4.3675 30.356 4.53639 29.7459 4.87419 28.5257C5.15531 27.51 5.29587 27.0022 5.48848 26.575C6.15512 25.0957 7.34503 24.0631 8.72108 23.7692C9.11868 23.6843 9.56317 23.6843 10.4521 23.6843Z" stroke="#4339E4" stroke-width="1.5" stroke-linecap="round" stroke-linejoin="round"/>
</svg>
