<svg width="40" height="40" viewBox="0 0 40 40" fill="none" xmlns="http://www.w3.org/2000/svg">
<path d="M18.1765 8.67756C17.3318 8.33563 16.4086 8.14735 15.4412 8.14735C11.4127 8.14735 8.14706 11.413 8.14706 15.4415C8.14706 19.4698 11.4127 22.7356 15.4412 22.7356C17.6198 22.7356 19.5753 21.7804 20.9118 20.2662M26.7498 3.06555C26.585 3.30104 26.5849 3.63325 26.5849 4.29767V5.38483C26.4223 5.44232 26.2636 5.50821 26.1096 5.58199L25.3406 4.81311C24.8708 4.3433 24.636 4.10839 24.3528 4.05848C24.2481 4.04001 24.1409 4.04001 24.0362 4.05848C23.753 4.10839 23.5181 4.3433 23.0482 4.81311C22.5785 5.28295 22.3436 5.51785 22.2936 5.80096C22.2752 5.9057 22.2752 6.01287 22.2936 6.11761C22.3436 6.40071 22.5785 6.63562 23.0482 7.10544L23.817 7.87425C23.7433 8.02851 23.6773 8.18725 23.6199 8.34996H22.5327C21.8682 8.34996 21.5361 8.34996 21.3005 8.51486C21.2134 8.57586 21.1377 8.65164 21.0766 8.73875C20.9118 8.97424 20.9118 9.30645 20.9118 9.97088C20.9118 10.6353 20.9118 10.9675 21.0766 11.203C21.1377 11.2901 21.2134 11.3659 21.3005 11.4269C21.536 11.5918 21.8682 11.5918 22.5327 11.5918H23.6199C23.6773 11.7545 23.7432 11.9132 23.817 12.0674L23.0482 12.8363C22.5783 13.3061 22.3434 13.541 22.2935 13.8241C22.275 13.9288 22.275 14.036 22.2935 14.1407C22.3434 14.4239 22.5783 14.6588 23.0482 15.1286C23.518 15.5984 23.7528 15.8333 24.036 15.8832C24.1407 15.9017 24.2479 15.9017 24.3526 15.8832C24.6358 15.8333 24.8707 15.5984 25.3404 15.1286L26.1094 14.3597C26.2636 14.4335 26.4223 14.4994 26.5849 14.5569V15.6441C26.5849 16.3085 26.585 16.6407 26.7498 16.8762C26.8109 16.9633 26.8866 17.0391 26.9737 17.1001C27.2093 17.265 27.5414 17.265 28.2059 17.265C28.8704 17.265 29.2024 17.265 29.438 17.1001C29.5252 17.0391 29.6009 16.9633 29.662 16.8762C29.8268 16.6407 29.8268 16.3085 29.8268 15.6441V14.5569C29.9895 14.4994 30.1483 14.4335 30.3026 14.3597L31.0714 15.1286C31.5413 15.5984 31.7762 15.8333 32.0592 15.8832C32.164 15.9017 32.2711 15.9017 32.3759 15.8832C32.6589 15.8333 32.894 15.5984 33.3637 15.1286C33.8335 14.6587 34.0685 14.4238 34.1183 14.1407C34.1369 14.036 34.1369 13.9288 34.1183 13.8241C34.0685 13.541 33.8335 13.3061 33.3637 12.8362L32.5948 12.0673C32.6686 11.9131 32.7344 11.7544 32.7919 11.5918H33.8791C34.5436 11.5918 34.8756 11.5918 35.1112 11.4269C35.1984 11.3659 35.2741 11.2901 35.3352 11.203C35.5 10.9675 35.5 10.6353 35.5 9.97088C35.5 9.30645 35.5 8.97424 35.3352 8.73875C35.2741 8.65164 35.1984 8.57586 35.1112 8.51486C34.8756 8.34996 34.5436 8.34996 33.8791 8.34996H32.7919C32.7344 8.18726 32.6684 8.02854 32.5948 7.87433L33.3636 7.10545C33.8335 6.63564 34.0684 6.40073 34.1181 6.11763C34.1367 6.01289 34.1367 5.90572 34.1181 5.80097C34.0684 5.51785 33.8333 5.28295 33.3636 4.81313C32.8938 4.34332 32.6588 4.10841 32.3758 4.0585C32.2711 4.04003 32.1639 4.04003 32.059 4.0585C31.776 4.10841 31.5411 4.34332 31.0712 4.81313L30.3024 5.58202C30.1481 5.50822 29.9895 5.44232 29.8268 5.38483V4.29767C29.8268 3.63325 29.8268 3.30104 29.662 3.06555C29.6009 2.97842 29.5252 2.90266 29.438 2.84164C29.2024 2.67676 28.8704 2.67676 28.2059 2.67676C27.5414 2.67676 27.2093 2.67676 26.9737 2.84164C26.8866 2.90266 26.8109 2.97842 26.7498 3.06555ZM30.0294 9.97088C30.0294 10.978 29.213 11.7944 28.2059 11.7944C27.1988 11.7944 26.3824 10.978 26.3824 9.97088C26.3824 8.96378 27.1988 8.14735 28.2059 8.14735C29.213 8.14735 30.0294 8.96378 30.0294 9.97088ZM10.5498 26.3826H20.3326C21.2125 26.3826 21.6523 26.3826 22.0458 26.4667C23.4078 26.7576 24.5856 27.7796 25.2454 29.2438C25.4361 29.6666 25.5753 30.1692 25.8535 31.1745C26.1878 32.3822 26.355 32.9862 26.3776 33.4732C26.4573 35.1917 25.5286 36.7434 24.1496 37.1956C23.7588 37.3238 23.2302 37.3238 22.1729 37.3238H8.70951C7.65223 37.3238 7.12361 37.3238 6.73275 37.1956C5.35374 36.7434 4.42502 35.1917 4.50476 33.4732C4.52738 32.9862 4.69454 32.3822 5.02888 31.1745C5.30714 30.1692 5.44625 29.6666 5.6369 29.2438C6.29673 27.7796 7.47447 26.7576 8.83647 26.4667C9.23 26.3826 9.66995 26.3826 10.5498 26.3826Z" stroke="#4339E4" stroke-width="1.5" stroke-linecap="round" stroke-linejoin="round"/>
</svg>
